# xmcd CD database file
#
# Track frame offsets:
#	150
#	18154
#	36786
#	55656
#	75432
#	97866
#	121356
#	136404
#	152430
#	176860
#	225421
#	246586
#	265638
#	281130
#	302664
#	317557
#
# Disc length: 4419 seconds
#
# Revision: 0
# Processed by: cddbd v1.5.2PL0 Copyright (c) Steve Scherf et al.
# Submitted via: CDex 1.51
#
DISCID=c5114110
DTITLE=Aa.Vv. - Latino! 15
DYEAR=2006
DGENRE=Salsa
TTITLE0=Se Le Ve
TTITLE1=Primavera Azul
TTITLE2=Corazon Arrepentido (salsa version)
TTITLE3=Mayor Que Yo
TTITLE4=Estoy Como Nunca
TTITLE5=Eterno Nino Bonito
TTITLE6=Se Rompieron Los Termometros
TTITLE7=Lo Que Tiene Ella
TTITLE8=La Mulata Del Barrio (esclusiva mondiale)
TTITLE9=Medley Bonito Y Sabroso-Francisco Guayabal-Que Bueno Baila Usted
TTITLE10=Perdoname
TTITLE11=Dime Cual Es
TTITLE12=Si Te Contara
TTITLE13=Yo No Pido Lo Malo
TTITLE14=Locas Por El Mambo
TTITLE15=El Tren
EXTD=YEAR: 2006
EXTT0=
EXTT1=
EXTT2=
EXTT3=
EXTT4=
EXTT5=
EXTT6=
EXTT7=
EXTT8=
EXTT9=
EXTT10=
EXTT11=
EXTT12=
EXTT13=
EXTT14=
EXTT15=
PLAYORDER=
